<mxfile host="app.diagrams.net" modified="2024-07-22T06:51:29.450Z" agent="Mozilla/5.0 (X11; Linux x86_64) AppleWebKit/537.36 (KHTML, like Gecko) Chrome/125.0.0.0 Safari/537.36" version="24.7.1" etag="W2LJswXzrBzXGi1uCzkQ" type="github">
  <diagram name="Page-1" id="ZjyivyVlpVMR8Z6ZtWU3">
    <mxGraphModel>
      <root>
        <mxCell id="0" />
        <mxCell id="1" parent="0" />
      </root>
    </mxGraphModel>
  </diagram>
</mxfile>
